<?xml version="1.0" encoding="UTF-8"?>
<!DOCTYPE svg PUBLIC "-//W3C//DTD SVG 1.1//EN" "http://www.w3.org/Graphics/SVG/1.1/DTD/svg11.dtd">
<svg xmlns="http://www.w3.org/2000/svg" version="1.1" width="128px" height="128px" style="shape-rendering:geometricPrecision; text-rendering:geometricPrecision; image-rendering:optimizeQuality; fill-rule:evenodd; clip-rule:evenodd" xmlns:xlink="http://www.w3.org/1999/xlink">
<g><path style="opacity:0.965" fill="#2156be" d="M 73.5,14.5 C 100.642,14.1411 113.808,27.4744 113,54.5C 107.375,75.108 93.875,84.2746 72.5,82C 52.5217,75.893 43.6883,62.393 46,41.5C 49.7826,26.8829 58.9493,17.8829 73.5,14.5 Z M 69.5,38.5 C 74.5148,40.6713 78.5148,44.1713 81.5,49C 78.287,52.5494 74.787,55.7161 71,58.5C 69.7425,58.1501 69.4092,57.4835 70,56.5C 72.5,54 75,51.5 77.5,49C 73.7862,46.1424 71.1195,42.6424 69.5,38.5 Z M 84.5,38.5 C 85.8197,41.428 86.4864,44.7614 86.5,48.5C 86.1667,51.8333 85.8333,55.1667 85.5,58.5C 84.914,58.2907 84.414,57.9574 84,57.5C 83.2098,51.0853 83.3765,44.752 84.5,38.5 Z"/></g>
</svg>
